<?xml version="1.0" standalone="yes"?>
<svg xmlns="http://www.w3.org/2000/svg" width="500" height="500">
<path style="fill:#ffffff; stroke:none;" d="M0 0L0 500L500 500L500 0L0 0z"/>
<path style="fill:#f5f1fa; stroke:none;" d="M173 264L178 264L178 96L217 96C214.688 84.6046 193.977 89 185 89C181.424 89 174.645 87.6785 173.318 92.1481C171.847 97.1022 173 103.856 173 109L173 145L173 264z"/>
<path style="fill:#f3f2f7; stroke:none;" d="M226 91C226.306 92.5282 227.323 94.9937 229 96C231.432 97.4592 237.127 95 240 95C250.772 95 260.485 96 271 96C275.503 96 280.084 96.3054 284 95L285 96L285 94C292.321 99.1225 304.218 94.0588 312 92C313.76 101.481 313 111.386 313 121L313 170C313 183.862 315.653 200.61 312 214C320.993 209.388 318 195.568 318 187L318 109C314.593 117.118 317 130.203 317 139L317 206C313.642 194.64 316 179.833 316 168L316 90L256 90C246.511 90 235.123 88.3035 226 91z"/>
<path style="fill:#f9f6fe; stroke:none;" d="M300 94C303.367 95.4525 307.337 95.7109 311 96L311 214C314.218 210.03 313.341 205.825 313.079 201C312.754 195.026 313 188.982 313 183L313 124C313 113.637 314.409 102.117 312 92C307.916 92.6915 304.186 93.902 300 94z"/>
<path style="fill:#f6f2fb; stroke:none;" d="M229 108C227.841 114.2 230.459 120.848 231.536 127C232.916 134.882 231.684 141.67 236.671 148.675C240.882 154.59 249.755 158.674 252.647 165.209C255.537 171.742 247.263 173.918 245.658 178.979C244.408 182.924 249.027 187.256 250 191C247.636 191.482 247.482 191.636 247 194C243.976 193.991 242.686 194.461 241 197C244.252 197.167 246.946 197.886 250 199C247.703 201.272 244.52 203.615 244.242 207.09C243.788 212.746 249.037 219.781 242.852 224.086C235.958 228.884 225.613 224.673 218 225.329C212.433 225.808 205.282 226.769 200.464 229.725C189.743 236.304 185.029 252.2 184 264C188.2 260.046 189.413 254.099 191.901 249C195.843 240.921 202.17 234.226 211 232C210.35 230.7 210.853 231 209 231C218.494 228.194 230.088 230.473 240 229.799C249.495 229.155 253.208 223.305 250.44 214.286C249.537 211.344 249.049 209.357 247 207C254.074 203.662 253.983 199.84 250 194C257.241 191.713 254.417 184.7 249 182L249 180C252.393 178.355 256.161 175.624 257.652 171.985C260.425 165.217 254.613 157.108 248 156C248.986 154.522 249 154.797 249 153C245.908 153 246.651 150.384 244.833 148.167C240.933 143.409 236.91 138.279 236 132C235.525 128.721 237.475 124.416 234 123C236.932 118.08 233.621 112.493 231 108L229 108z"/>
<path style="fill:#efcfdb; stroke:none;" d="M324 212C320.699 214.185 318.63 216.383 317 220L322 221L322 217C323.862 223.299 323 230.463 323 237L323 272L268 272L269 268C267.16 269.717 266.651 270.566 266 273L324 273C324 260.369 323.487 247.618 324.039 235C324.339 228.166 326.301 218.415 324 212z"/>
<path style="fill:#eeccd0; stroke:none;" d="M322 217L322 221C320.365 220.455 320.545 220.635 320 219L316 220C317.385 230.957 317 241.959 317 253C317 256.52 318.118 262.679 314.682 264.972C312.118 266.683 307.917 266 305 266C297.709 266 290.274 266.42 283 265.91C275.555 265.389 270.357 263.004 268 272L323 272L323 235C323 229.381 324.189 222.216 322 217z"/>
<path style="fill:#eed7e2; stroke:none;" d="M315 220L308 229C309.797 229 309.522 228.986 311 228L311 260C314.693 251.2 310.755 239.421 312.144 230.039C312.704 226.26 316.027 223.864 315 220z"/>
<path style="fill:#f6ebef; stroke:none;" d="M315 223C318.116 236.09 316 251.572 316 265C319.507 256.643 317 243.06 317 234C317 230.293 317.955 225.582 315 223z"/>
<path style="fill:#ffffff; stroke:none;" d="M315 224C311.322 228.164 312 232.686 312 238L312 261L289 261C283.4 261 278.828 260.405 275 265L316 265L316 238C316 233.464 316.769 228.215 315 224z"/>
<path style="fill:#edcad0; stroke:none;" d="M310 228C297.321 235.299 287.848 248.694 279 260C289.402 261.228 300.472 260 311 260L311 240C311 236.017 311.552 231.699 310 228z"/>
<path style="fill:#f4e6ef; stroke:none;" d="M324 230L324 273L284 273C277.735 273 270.633 274.133 265 271C264.014 272.479 264 272.203 264 274L325 274L325 245C325 240.191 325.875 234.469 324 230z"/>
<path style="fill:#eed0e3; stroke:none;" d="M286 250C282.872 253.138 279.881 255.966 278 260C281.588 257.708 286.234 254.626 286 250z"/>
<path style="fill:#f3e0e9; stroke:none;" d="M273 264L274 265C277.026 263.095 279.441 261.538 283 261C278.657 258.986 275.818 260.383 273 264z"/>
<path style="fill:#f9f8fa; stroke:none;" d="M192 265C199.152 267.114 207.573 266 215 266L258 266L258 264L195 264C203.602 258.731 216.219 261 226 261C219.806 258.401 210.686 260 204 260C201.307 260 197.875 259.485 195.344 260.599C193.334 261.483 192.781 263.135 192 265z"/>
<path style="fill:#f1f0f8; stroke:none;" d="M195 263C200.216 265.189 207.381 264 213 264L249 264C254.687 264 261.767 265.45 266 261C252.006 256.863 234.375 260.633 220 260.985C211.711 261.188 202.792 259.712 195 263z"/>
<path style="fill:#f4e4ec; stroke:none;" d="M286 260C293.169 263.008 304.239 261 312 261C304.831 257.992 293.761 260 286 260z"/>
<path style="fill:#f1dbe5; stroke:none;" d="M279 265C282.959 266.661 287.74 266 292 266L316 266C312.041 264.339 307.26 265 303 265L279 265z"/>
<path style="fill:#ecdbe8; stroke:none;" d="M158 296L158 301C159.656 299.314 160.251 298.254 161 296L158 296z"/>
<path style="fill:#e9c1ca; stroke:none;" d="M151 352C144.359 335.014 154.987 313.935 159 297C154.541 298.403 152.5 302.776 150.835 307C147.106 316.457 144.908 327.863 144.093 338C143.563 344.593 143.032 351.392 151 352z"/>
<path style="fill:#f0d8e7; stroke:none;" d="M109 302C113.595 304.681 121.08 302.458 126 301L125 309C127.081 305.694 127.527 302.117 131 300L131 304C132.582 301.943 132.826 300.612 133 298C124.612 298.006 117.054 299.864 109 302z"/>
<path style="fill:#e8c3cb; stroke:none;" d="M128 300C124.148 316.65 121.238 333.402 114 349C119.589 347.818 122.293 343.033 124.475 338C129.143 327.228 130.903 311.686 131 300L128 300z"/>
<path style="fill:#eedbe4; stroke:none;" d="M153 301C152.014 302.479 152 302.203 152 304C153.289 302.557 153.401 302.766 153 301z"/>
<path style="fill:#faf0fe; stroke:none;" d="M229 304L229 308C237.483 305.178 246.98 302.689 251 313C252.876 310.271 253.209 307.203 254 304C245.155 301.978 237.841 301.516 229 304z"/>
<path style="fill:#f2f0f3; stroke:none;" d="M287 305L287 307C293.193 313.065 290 329.73 290 338C290 342.835 288.847 347.929 294 350C295.856 345.592 295 339.85 295 335C295 328.884 294.124 322.043 295 316C295.235 314.381 296.613 313.324 296.833 311.833C297.09 310.098 295.008 308.709 294.667 307C294.285 305.092 295.474 303.635 296 302L287 305z"/>
<path style="fill:#f6f0fe; stroke:none;" d="M309 302C311.74 306.927 311 312.516 311 318L311 349L308 349C308 333.721 307.276 318.252 308 303C305.306 303.961 303.603 304.636 302 307C306.037 309.617 305 314.606 305 319C305 329.721 306.698 341.214 302 351L316 351C311.342 344.531 312 338.751 312 331L312 302L309 302z"/>
<path style="fill:#edccd9; stroke:none;" d="M101 310C105.756 309.03 108.964 306.748 112 303C106.739 303.289 103.471 305.301 101 310z"/>
<path style="fill:#efeff5; stroke:none;" d="M308 303C305.912 317.633 308 334.141 308 349L311 349L311 303L308 303z"/>
<path style="fill:#f3e9ef; stroke:none;" d="M131 304C130.024 309.034 129.043 313.853 129 319C130.947 314.949 132.535 308.279 131 304z"/>
<path style="fill:#f1f1f2; stroke:none;" d="M216 322C212.556 323.403 215.004 325.933 214.833 329C214.324 338.169 216.765 342.574 224 348C224.5 346.499 226.252 342.511 226 341C225.576 338.455 221.213 336.557 221 334C220.934 333.209 222.491 332.473 222 331C220.572 326.717 222.303 322.91 221 319L222 319C222.221 317.013 222.081 315.654 223 314C223.68 312.776 225.496 312.567 226 312C226.871 311.02 226.866 309.134 228 308L229 309L230 305C222.031 306.443 214.76 313.488 216 322z"/>
<path style="fill:#e6e3ea; stroke:none;" d="M253 305L253 314C254.256 311.006 254.256 307.994 253 305z"/>
<path style="fill:#ede9f2; stroke:none;" d="M306 308L306 347C309.206 339.361 307 327.271 307 319C307 315.298 307.441 311.435 306 308z"/>
<path style="fill:#e9c6cd; stroke:none;" d="M106 325C105.234 322.634 103.415 321.089 102.589 318.791C101.417 315.534 103.035 312.091 104 309C96.8482 311.875 99.3365 322.989 106 325z"/>
<path style="fill:#e3d8e3; stroke:none;" d="M124 310C122.336 318.829 119.409 328.046 119 337C122.264 330.993 126.677 316.439 124 310z"/>
<path style="fill:#efdae5; stroke:none;" d="M154 310L154 314C154.71 312.241 154.71 311.759 154 310z"/>
<path style="fill:#e4cee0; stroke:none;" d="M99 311L99 319C100.161 316.23 100.161 313.77 99 311z"/>
<path style="fill:#efdee7; stroke:none;" d="M103 311C102.01 314.35 102.002 317.514 102 321C103.277 317.986 103.764 314.18 103 311z"/>
<path style="fill:#f3eaf1; stroke:none;" d="M153 315L153 320C153.83 317.969 153.83 317.031 153 315z"/>
<path style="fill:#f4e6f1; stroke:none;" d="M146 320L146 324L141 324C143.052 324.874 144.747 324.953 147 325C146.912 323.036 146.779 321.769 146 320z"/>
<path style="fill:#ece4eb; stroke:none;" d="M152 320L152 324C152.71 322.24 152.71 321.76 152 320z"/>
<path style="fill:#e7dbe5; stroke:none;" d="M188 323L190 326C191.118 323.86 190.251 323.473 188 323z"/>
<path style="fill:#e6c1d3; stroke:none;" d="M194 328C194.95 327.989 196.166 328.068 197.141 327.941C204.217 327.023 199.201 320.813 195.029 325.158C194.33 325.887 194.26 327.145 194 328z"/>
<path style="fill:#efd5e1; stroke:none;" d="M128 325L128 327L145 327C144.499 329.686 144.117 332.27 144 335C145.9 331.829 145.969 328.646 146 325C139.843 324.515 134.154 324.949 128 325z"/>
<path style="fill:#edc6d1; stroke:none;" d="M166 350C160.463 343.721 160.792 339.053 165.224 332.004C166.449 330.054 168.627 325.5 171.647 326.447C174.693 327.402 171.568 333.194 171 335C174.619 334.23 180.38 329.847 176.381 325.742C173.503 322.787 167.295 323.941 164.29 326.009C156.927 331.076 151.521 353.617 166 350z"/>
<path style="fill:#f0deee; stroke:none;" d="M175 324C177.491 327.604 177.041 329.887 176 334C179.409 330.661 180.194 325.724 175 324z"/>
<path style="fill:#efc6d0; stroke:none;" d="M184 324C183.994 332.867 181.182 341.223 181 350C188.549 348.702 187.467 340.973 188.184 335C188.634 331.257 189.826 327.799 190 324L184 324z"/>
<path style="fill:#e4bebe; stroke:none;" d="M196 327C198.739 326.789 199.422 326.697 200 324C197.791 324.684 197.297 325.08 196 327z"/>
<path style="fill:#f6f0fc; stroke:none;" d="M275 333L279 331L279 336C282.962 326.558 274.491 321.437 266.019 325.576C264.295 326.419 260.679 328.949 262.172 331.342C264.057 334.363 267.8 328.821 269.36 328.171C272.672 326.792 274.17 330.639 275 333z"/>
<path style="fill:#fcf3ff; stroke:none;" d="M333 352L333 347C329.26 346.72 327.403 345.888 325 343L321 346C319.029 340.593 318.45 336.299 321 331C321.276 335.271 320.722 339.197 323 343C323.265 340.612 323.143 338.406 323 336L327 336C325.231 335.221 323.964 335.088 322 335C325.744 327.494 328.57 326.454 336 330L335 334L340 335C340.854 332.303 340.851 331.614 338 331L339 328C336.756 326.478 334.725 324.754 331.961 324.347C311.969 321.407 312.234 356.458 333 352z"/>
<path style="fill:#f5f2fa; stroke:none;" d="M352 328L359 328L358 330C360.859 329.572 362.612 328.622 365 327L365 330C370.41 332.839 370.843 339.741 373.298 345C374.623 347.839 376.446 350.724 375.871 353.985C375.154 358.058 371.603 361.262 370 365L365 364C364.438 365.801 364.176 367.122 364 369C370.109 368.852 375.134 366.952 374 360C378.844 358.432 379.634 353.463 381.169 349C384.091 340.501 387.802 332.829 392 325L382 325C382.98 326.783 382.908 326.594 385 327C384.445 332.538 381.813 337.495 381 343C377.907 340.664 373.426 333.299 373.75 329.111C373.862 327.669 375.394 326.257 376 325C368.319 325 357.527 321.737 352 328z"/>
<path style="fill:#ffffff; stroke:none;" d="M163 337C166.739 335.96 170.345 334.629 172.427 331.098C173.262 329.682 174.191 327.259 172.383 326.122C167.628 323.131 163.691 334.051 163 337z"/>
<path style="fill:#edd8ef; stroke:none;" d="M181 328C183.124 327.101 183.101 327.124 184 325C181.876 325.899 181.899 325.876 181 328z"/>
<path style="fill:#f2dbf1; stroke:none;" d="M193 326C191.597 327.654 191.011 328.394 189 329C188.375 332.363 188.028 335.578 188 339C192.301 333.815 193.426 329.246 201 329L193 326z"/>
<path style="fill:#efeeef; stroke:none;" d="M346 327C349.198 332.117 347 343.758 347 350C353.515 346.194 350.979 333.483 350 327L346 327z"/>
<path style="fill:#e8e3ec; stroke:none;" d="M342 328C343.506 328.683 344.315 328.826 346 329C344.494 328.317 343.685 328.174 342 328z"/>
<path style="fill:#e8e6ec; stroke:none;" d="M241 329C245.471 330.876 251.183 330 256 330C251.529 328.124 245.817 329 241 329z"/>
<path style="fill:#faf3fb; stroke:none;" d="M241 330C243.116 331.501 245.67 332.751 246.973 335.108C249.808 340.238 248.403 348.172 241.995 348.891C234.017 349.786 231.327 345.172 225 342L224 349C230.674 350.935 235.135 353.482 242 351C244.986 354.36 250.016 351.188 254 351C254 346.149 252.871 339.643 254.599 335.054C255.486 332.698 257.643 331.054 259 329C252.946 329.765 247.107 330 241 330z"/>
<path style="fill:#e9dee5; stroke:none;" d="M150 330L150 335C150.83 332.969 150.83 332.03 150 330z"/>
<path style="fill:#f2eeee; stroke:none;" d="M276 331C276.651 335.555 274.864 341.192 280 343L279 331L276 331z"/>
<path style="fill:#eeefec; stroke:none;" d="M320 331C318.74 336.294 318.613 341.041 321 346C322.608 344.55 323.064 343.948 324 342C319.15 342 322.522 333.312 320 331z"/>
<path style="fill:#f0d5e7; stroke:none;" d="M170 333C167.712 335.031 165.938 336.082 163 335C161.13 338.891 160.814 342.872 162 347C163.098 344.387 162.993 341.835 163 339C166.553 338.476 169.718 337.453 173 336C171.636 334.181 171.508 334.969 172 333L170 333z"/>
<path style="fill:#faf3ff; stroke:none;" d="M276 333C276 334.797 275.986 334.521 275 336C265.379 334.806 260.443 342.579 262 351C266.971 351.2 272.145 352.72 274 347L267 347C267.788 342.118 270.869 340.303 275 338C275.004 343.447 275.953 357.721 284.39 349.815C285.247 349.011 285.479 348.016 286 347L281 348L280 343C275.695 340.458 277.472 337.058 276 333z"/>
<path style="fill:#e7e2eb; stroke:none;" d="M322 334C323.769 334.779 325.036 334.912 327 335C325.231 334.221 323.964 334.088 322 334z"/>
<path style="fill:#e8e4eb; stroke:none;" d="M330 334C332.89 335.213 335.874 334.998 339 335C336.11 333.787 333.126 334.002 330 334z"/>
<path style="fill:#f0dceb; stroke:none;" d="M156 337L156 347C157.346 343.793 157.346 340.207 156 337z"/>
<path style="fill:#ecd5e5; stroke:none;" d="M124 338C122.233 341.322 120.295 344.463 119 348C121.996 345.449 124.956 342.091 124 338z"/>
<path style="fill:#f0d2dd; stroke:none;" d="M143 338L143 349C144.431 345.59 144.431 341.41 143 338z"/>
<path style="fill:#f7ecf3; stroke:none;" d="M142 339L142 349C143.346 345.793 143.346 342.207 142 339z"/>
<path style="fill:#e6cade; stroke:none;" d="M117 340L110 352C112.469 351.574 114.645 350.868 117 350C115.752 349.315 115.452 349.251 114 349C115.894 346.088 117.927 343.489 117 340z"/>
<path style="fill:#eed8e6; stroke:none;" d="M148 340L148 348C149.161 345.23 149.161 342.77 148 340z"/>
<path style="fill:#eee0ea; stroke:none;" d="M174 342C172.394 343.914 171.217 344.837 169 346C172.878 347.918 174.895 345.778 176 342L174 342z"/>
<path style="fill:#e5d1e0; stroke:none;" d="M164 348C165.364 349.819 165.492 349.031 165 351C168.316 350.47 170.23 349.898 172 347L164 348z"/>
<path style="fill:#ecd9ec; stroke:none;" d="M180 348C180.841 351.923 185.159 351.923 186 348C183.536 349.204 182.464 349.204 180 348z"/>
<path style="fill:#f2dce7; stroke:none;" d="M99 351C101.709 355.179 106.659 354.034 111 353L111 350C106.778 350.954 103.329 351.455 99 351z"/>
<path style="fill:#f0edf2; stroke:none;" d="M146 352C149.461 353.438 152.78 353.142 155 350L146 352z"/>
<path style="fill:#f3e5ef; stroke:none;" d="M161 351C162.769 351.779 164.036 351.912 166 352C164.231 351.221 162.964 351.088 161 351z"/>
</svg>
